<svg xmlns="http://www.w3.org/2000/svg" viewBox="0 0 560 140" xmlns:v="https://vecta.io/nano"><g fill="#dfdfdf"><path d="M246 98.1a6.12 6.12 0 0 1-6.14-6.1V69.8a28.33 28.33 0 0 1 28.3-28.3 6.14 6.14 0 0 1 0 12.27 16 16 0 0 0-16 16V92a6.13 6.13 0 0 1-6.16 6.1M232.26 68v3.53l.06-1.73-.06-1.8z"/><path d="M232.27 71.54V47.62a6.13 6.13 0 0 0-12.16-1.12 28.31 28.31 0 1 0 0 46.63v3.12a16.08 16.08 0 0 1-16 16l-11.23.07a6.14 6.14 0 0 0 0 12.28l11.23-.08a28.33 28.33 0 0 0 28.3-28.3zM220 71.2a16.06 16.06 0 1 1 0-2.82 13.62 13.62 0 0 1 .07 1.44L220 71.2z"/><path d="M220.06 69.8l-.06 1.4v-2.82a13.62 13.62 0 0 1 .06 1.44zm106.18-28.3a6.13 6.13 0 0 0-6.1 5.5 28.3 28.3 0 1 0 0 45.6 6.14 6.14 0 0 0 12.24-.6V47.63a6.13 6.13 0 0 0-6.14-6.13zM303.4 85.83a16 16 0 1 1 16-16 16 16 0 0 1-16 16zm84.88-44.17h0a20 20 0 0 0-14.15 5.83A20 20 0 0 0 360 41.66h0a20.08 20.08 0 0 0-20.1 20.08V91.9a6.045 6.045 0 1 0 12.09 0V61.85a8.17 8.17 0 0 1 7.46-8.25 8 8 0 0 1 8.53 8v30.3a6.05 6.05 0 0 0 6 6h.2a6 6 0 0 0 6-6V61.58a8 8 0 0 1 8-8h0a8 8 0 0 1 8 8V91.9a6.04 6.04 0 1 0 12.08 0V61.74a20.08 20.08 0 0 0-20.08-20.08m75.92 0h0a20 20 0 0 0-14.1 5.83 20 20 0 0 0-14.15-5.83h0a20.08 20.08 0 0 0-20.08 20.08V91.9a6.045 6.045 0 1 0 12.09 0V61.85a8.17 8.17 0 0 1 7.46-8.25 8 8 0 0 1 8.53 8v30.3a6 6 0 0 0 6 6h.22a6 6 0 0 0 6-6V61.58a8 8 0 0 1 8-8h0a8 8 0 0 1 8 8V91.9a6.04 6.04 0 1 0 12.08 0V61.74a20.08 20.08 0 0 0-20.05-20.08m75.82 0h0a20 20 0 0 0-14.15 5.83 20 20 0 0 0-14.15-5.83h0a20.08 20.08 0 0 0-20.08 20.08V91.9a6.045 6.045 0 1 0 12.09 0V61.85a8.17 8.17 0 0 1 7.46-8.25 8 8 0 0 1 8.53 8v30.3a6 6 0 0 0 6 6h.22a6 6 0 0 0 6-6V61.58a8 8 0 0 1 8-8h0a8 8 0 0 1 8 8V91.9A6.05 6.05 0 0 0 554 98h0a6 6 0 0 0 6-6V61.74a20.08 20.08 0 0 0-20.08-20.08M159 7.7l-44.36 20 17 28.23L159 8.6zM43.14 32.87L46.12 0H1.35z"/></g><path d="M44.08 72.7l26.12 3-20.58-23.16zM41.6 44.3L0 11.57l34.28 59.37zm11.25-8.6L101.7 22 97 0H56.1zm46.73-2.8L56.23 45.06l27.63 31.07zm11.52-14.44L151.94 0h-44.8zM95 74.6l29.32-5.82 1.73-3L108.66 37z" fill="#2dcaff"/><path d="M77.3 86.52l-36.46-4.2L74.15 140z" fill="#dfdfdf"/><path d="M87.08 89.56l-2.88 48.66 18.42-31.9zM96 84.53l11.86 12.8 9.88-17.1z" fill="#2dcaff"/></svg>
